<svg width="6" height="26" viewBox="0 0 6 26" fill="none" xmlns="http://www.w3.org/2000/svg">
    <path fill-rule="evenodd" clip-rule="evenodd" d="M0 3C0 1.34562 1.34516 0 3 0C4.65396 0 6 1.34562 6 3C6 4.65438 4.65403 6 3 6C1.34516 5.99993 0 4.65438 0 3Z" fill="#E2E0B8"/>
    <path fill-rule="evenodd" clip-rule="evenodd" d="M0 13C0 11.3456 1.34516 10 3 10C4.65396 10 6 11.3456 6 13C6 14.6541 4.65403 16 3 16C1.34516 15.9999 0 14.6541 0 13Z" fill="#E2E0B8"/>
    <path fill-rule="evenodd" clip-rule="evenodd" d="M0 23C0 21.3459 1.34516 20 3 20C4.65396 20 6 21.3458 6 23C6 24.6542 4.65403 26 3 26C1.34516 26 0 24.6542 0 23Z" fill="#E2E0B8"/>
</svg>
