<svg width="169" height="43" viewBox="0 0 169 43" fill="none" xmlns="http://www.w3.org/2000/svg">
    <path fill-rule="evenodd" clip-rule="evenodd" d="M14.8854 28.4643H28.0117C29.7605 28.4643 31.1699 27.0549 31.1699 25.3061V17.7966C31.1699 16.058 29.7605 14.6384 28.0117 14.6384H14.8854C13.1469 14.6384 11.7273 16.0478 11.7273 17.7966V25.3061C11.7273 27.0549 13.1366 28.4643 14.8854 28.4643ZM19.9364 24.0511V18.3418L24.2672 21.1913L19.9364 24.0511Z" fill="#716565"/>
    <path fill-rule="evenodd" clip-rule="evenodd" d="M21.4486 42.9795C33.2993 42.9898 42.9074 33.4022 42.928 21.5515C42.9486 9.70076 33.3405 0.0926286 21.5 0.0720545C9.6596 0.0514803 0.0308908 9.65962 0.0206038 21.5C0.0103167 27.1991 2.27347 32.6615 6.30601 36.6941C10.318 40.7266 15.7701 42.9795 21.4486 42.9795ZM21.4486 2.27349C32.106 2.2632 40.7574 10.9044 40.7677 21.5618C40.778 32.2192 32.1369 40.8706 21.4795 40.8809C10.822 40.8809 2.1706 32.25 2.16032 21.5926C2.16032 16.4697 4.18687 11.5524 7.81821 7.9211C11.429 4.30005 16.3359 2.2632 21.4486 2.27349Z" fill="#716565"/>
    <path fill-rule="evenodd" clip-rule="evenodd" d="M147.449 42.9795C159.299 42.9898 168.907 33.4022 168.928 21.5515C168.949 9.70076 159.34 0.0926286 147.5 0.0720545C135.66 0.0514803 126.031 9.65962 126.021 21.5C126.01 27.1991 128.273 32.6615 132.306 36.6941C136.318 40.7266 141.77 42.9795 147.449 42.9795ZM147.449 2.27349C158.106 2.2632 166.757 10.9044 166.768 21.5618C166.778 32.2192 158.137 40.8706 147.479 40.8809C136.822 40.8809 128.171 32.25 128.16 21.5926C128.16 16.4697 130.187 11.5524 133.818 7.9211C137.429 4.30005 142.336 2.2632 147.449 2.27349Z" fill="#716565"/>
    <path fill-rule="evenodd" clip-rule="evenodd" d="M137.594 27.9293C139.466 29.1329 141.647 29.7707 143.869 29.7707C145.587 29.781 147.294 29.4209 148.858 28.7008C150.926 27.7339 152.654 26.1496 153.816 24.1745C154.907 22.3434 155.493 20.2551 155.514 18.1154C155.514 18.0023 155.514 17.8891 155.514 17.776C156.254 17.2102 156.902 16.5312 157.427 15.7494C157.54 15.5848 157.489 15.3585 157.324 15.2453C157.221 15.1733 157.088 15.163 156.974 15.2145C156.697 15.3379 156.419 15.4408 156.131 15.5231C156.491 15.1013 156.758 14.6075 156.923 14.0829C156.985 13.8977 156.882 13.692 156.686 13.6303C156.584 13.5994 156.481 13.6097 156.388 13.6611C155.699 14.0726 154.948 14.3607 154.166 14.5355C152.448 12.869 149.712 12.9205 148.045 14.6384C147.263 15.4408 146.831 16.5209 146.831 17.6525C146.831 17.8274 146.842 17.992 146.862 18.1669C143.941 17.8994 141.256 16.4695 139.404 14.1858C139.281 14.0315 139.054 14.0109 138.9 14.1343C138.869 14.1652 138.838 14.1961 138.818 14.2372C137.923 15.7803 138.056 17.7142 139.178 19.103C139.023 19.0413 138.879 18.9796 138.735 18.8973C138.561 18.8047 138.345 18.8664 138.242 19.0413C138.211 19.0927 138.2 19.1441 138.2 19.2059C138.2 19.2367 138.2 19.247 138.2 19.2676C138.2 20.7284 138.941 22.0965 140.176 22.8989C140.124 22.8886 140.073 22.8784 140.021 22.8681C139.826 22.8269 139.641 22.9607 139.6 23.1561C139.589 23.2178 139.589 23.2796 139.61 23.331C140.062 24.7609 141.235 25.8513 142.686 26.2114C141.225 27.0961 139.517 27.4664 137.83 27.2607C137.635 27.2401 137.45 27.3738 137.429 27.5796C137.419 27.7133 137.48 27.847 137.594 27.9293Z" fill="#716565"/>
    <path fill-rule="evenodd" clip-rule="evenodd" d="M82.1485 21.9217H83.6196V30.82C83.6196 31.0154 83.7842 31.18 83.9796 31.18H87.827C88.0225 31.18 88.187 31.0154 88.187 30.82V21.9217H90.4193C90.6045 21.9217 90.7588 21.7776 90.7794 21.6028L91.1189 18.3315C91.1394 18.136 90.9954 17.9611 90.8 17.9406C90.7897 17.9406 90.7794 17.9406 90.7588 17.9406H88.187V16.3769C88.187 16.2741 88.1973 16.1712 88.2385 16.0786C88.2796 15.986 88.3516 15.914 88.4545 15.8831C88.5162 15.8626 88.578 15.8523 88.6397 15.8523H90.7074C90.9028 15.8523 91.0674 15.6877 91.0674 15.4922V12.3238C91.0674 12.1284 90.9028 11.9638 90.7074 11.9638L87.8579 11.9535C87.1378 11.9329 86.4177 12.0872 85.7593 12.3855C85.3581 12.5707 84.9981 12.8382 84.6997 13.1571C84.2985 13.5891 84.0105 14.1138 83.8356 14.6796C83.6813 15.1733 83.6093 15.6774 83.6093 16.1918V17.9509H82.1382C81.9428 17.9509 81.7782 18.1154 81.7782 18.3109V21.5822C81.7885 21.7571 81.9428 21.9217 82.1485 21.9217Z" fill="#716565"/>
    <path fill-rule="evenodd" clip-rule="evenodd" d="M86.4486 42.9795C98.2993 42.9898 107.907 33.4022 107.928 21.5515C107.949 9.70076 98.3405 0.0926286 86.5 0.0720545C74.6596 0.0514803 65.0309 9.65962 65.0206 21.5C65.0103 27.1991 67.2735 32.6615 71.306 36.6941C75.318 40.7266 80.7701 42.9795 86.4486 42.9795ZM86.4486 2.27349C97.106 2.2632 105.757 10.9044 105.768 21.5618C105.778 32.2192 97.1369 40.8706 86.4795 40.8809C75.822 40.8809 67.1706 32.25 67.1603 21.5926C67.1603 16.4697 69.1869 11.5524 72.8182 7.9211C76.429 4.30005 81.3359 2.2632 86.4486 2.27349Z" fill="#716565"/>
</svg>
